HIERARCHY
ROOT Hips
{
    OFFSET 0.000000 0.000000 0.000000
    CHANNELS 6 Xposition Yposition Zposition Zrotation Xrotation Yrotation
    JOINT Spine
    {
        OFFSET 0.000001 7.292995 0.000000
        CHANNELS 3 Zrotation Xrotation Yrotation
        JOINT Spine1
        {
            OFFSET -0.000000 20.255388 0.000001
            CHANNELS 3 Zrotation Xrotation Yrotation
            JOINT Neck
            {
                OFFSET 0.000001 20.786594 0.000000
                CHANNELS 3 Zrotation Xrotation Yrotation
                JOINT Head
                {
                    OFFSET 0.000003 12.530788 1.776080
                    CHANNELS 3 Zrotation Xrotation Yrotation
                    End Site
                    {
                        OFFSET 0.000000 17.760757 0.000000
                    }
                }
            }
            JOINT LeftShoulder
            {
                OFFSET 3.550532 15.465697 -0.908801
                CHANNELS 3 Zrotation Xrotation Yrotation
                JOINT LeftArm
                {
                    OFFSET 12.513301 -0.000005 0.000001
                    CHANNELS 3 Zrotation Xrotation Yrotation
                    JOINT LeftForeArm
                    {
                        OFFSET 24.225992 0.000005 0.000000
                        CHANNELS 3 Zrotation Xrotation Yrotation
                        JOINT LeftHand
                        {
                            OFFSET 20.711395 -0.000004 0.000000
                            CHANNELS 3 Zrotation Xrotation Yrotation
                            JOINT LeftHandThumb1
                            {
                                OFFSET 2.121964 -2.411326 3.375861
                                CHANNELS 3 Zrotation Xrotation Yrotation
                                JOINT LeftHandThumb2
                                {
                                    OFFSET 2.803212 -0.000001 -0.000002
                                    CHANNELS 3 Zrotation Xrotation Yrotation
                                    JOINT LeftHandThumb3
                                    {
                                        OFFSET 2.395929 0.000000 0.000000
                                        CHANNELS 3 Zrotation Xrotation Yrotation
                                        End Site
                                        {
                                            OFFSET 2.127676 0.000000 0.000000
                                        }
                                    }
                                }
                            }
                            JOINT LeftHandIndex1
                            {
                                OFFSET 8.680776 0.000004 3.375861
                                CHANNELS 3 Zrotation Xrotation Yrotation
                                JOINT LeftHandIndex2
                                {
                                    OFFSET 4.218180 -0.000002 0.000001
                                    CHANNELS 3 Zrotation Xrotation Yrotation
                                    JOINT LeftHandIndex3
                                    {
                                        OFFSET 2.109090 0.000001 -0.000000
                                        CHANNELS 3 Zrotation Xrotation Yrotation
                                        End Site
                                        {
                                            OFFSET 1.872952 0.000000 0.000000
                                        }
                                    }
                                }
                            }
                            JOINT LeftHandMiddle1
                            {
                                OFFSET 8.680775 0.000001 1.118862
                                CHANNELS 3 Zrotation Xrotation Yrotation
                                JOINT LeftHandMiddle2
                                {
                                    OFFSET 4.640000 0.000002 -0.000000
                                    CHANNELS 3 Zrotation Xrotation Yrotation
                                    JOINT LeftHandMiddle3
                                    {
                                        OFFSET 2.530906 0.000005 0.000000
                                        CHANNELS 3 Zrotation Xrotation Yrotation
                                        End Site
                                        {
                                            OFFSET 2.247544 0.000000 0.000000
                                        }
                                    }
                                }
                            }
                            JOINT LeftHandRing1
                            {
                                OFFSET 8.198514 -0.000004 -1.118859
                                CHANNELS 3 Zrotation Xrotation Yrotation
                                JOINT LeftHandRing2
                                {
                                    OFFSET 4.218182 -0.000003 -0.000001
                                    CHANNELS 3 Zrotation Xrotation Yrotation
                                    JOINT LeftHandRing3
                                    {
                                        OFFSET 2.109086 0.000004 0.000001
                                        CHANNELS 3 Zrotation Xrotation Yrotation
                                        End Site
                                        {
                                            OFFSET 1.872952 0.000000 0.000000
                                        }
                                    }
                                }
                            }
                            JOINT LeftHandPinky1
                            {
                                OFFSET 7.716242 0.000005 -3.375859
                                CHANNELS 3 Zrotation Xrotation Yrotation
                                JOINT LeftHandPinky2
                                {
                                    OFFSET 3.374535 0.000004 0.000002
                                    CHANNELS 3 Zrotation Xrotation Yrotation
                                    JOINT LeftHandPinky3
                                    {
                                        OFFSET 1.687275 0.000002 -0.000001
                                        CHANNELS 3 Zrotation Xrotation Yrotation
                                        End Site
                                        {
                                            OFFSET 1.498360 0.000000 0.000000
                                        }
                                    }
                                }
                            }
                        }
                    }
                }
            }
            JOINT RightShoulder
            {
                OFFSET -3.550531 15.465694 -0.908802
                CHANNELS 3 Zrotation Xrotation Yrotation
                JOINT RightArm
                {
                    OFFSET -12.513298 -0.000004 0.000001
                    CHANNELS 3 Zrotation Xrotation Yrotation
                    JOINT RightForeArm
                    {
                        OFFSET -24.225996 -0.000002 -0.000000
                        CHANNELS 3 Zrotation Xrotation Yrotation
                        JOINT RightHand
                        {
                            OFFSET -20.711401 0.000005 0.000001
                            CHANNELS 3 Zrotation Xrotation Yrotation
                            JOINT RightHandThumb1
                            {
                                OFFSET -2.121970 -2.411334 3.375861
                                CHANNELS 3 Zrotation Xrotation Yrotation
                                JOINT RightHandThumb2
                                {
                                    OFFSET -2.803210 0.000003 -0.000004
                                    CHANNELS 3 Zrotation Xrotation Yrotation
                                    JOINT RightHandThumb3
                                    {
                                        OFFSET -2.395930 -0.000001 0.000002
                                        CHANNELS 3 Zrotation Xrotation Yrotation
                                        End Site
                                        {
                                            OFFSET -2.127676 0.000000 0.000000
                                        }
                                    }
                                }
                            }
                            JOINT RightHandIndex1
                            {
                                OFFSET -8.680779 0.000001 3.375860
                                CHANNELS 3 Zrotation Xrotation Yrotation
                                JOINT RightHandIndex2
                                {
                                    OFFSET -4.218180 0.000000 -0.000000
                                    CHANNELS 3 Zrotation Xrotation Yrotation
                                    JOINT RightHandIndex3
                                    {
                                        OFFSET -2.109090 0.000001 -0.000000
                                        CHANNELS 3 Zrotation Xrotation Yrotation
                                        End Site
                                        {
                                            OFFSET -1.872952 0.000000 0.000000
                                        }
                                    }
                                }
                            }
                            JOINT RightHandMiddle1
                            {
                                OFFSET -8.680780 0.000001 1.118860
                                CHANNELS 3 Zrotation Xrotation Yrotation
                                JOINT RightHandMiddle2
                                {
                                    OFFSET -4.640000 -0.000002 0.000001
                                    CHANNELS 3 Zrotation Xrotation Yrotation
                                    JOINT RightHandMiddle3
                                    {
                                        OFFSET -2.530910 0.000001 -0.000000
                                        CHANNELS 3 Zrotation Xrotation Yrotation
                                        End Site
                                        {
                                            OFFSET -2.247544 0.000000 0.000000
                                        }
                                    }
                                }
                            }
                            JOINT RightHandRing1
                            {
                                OFFSET -8.198519 0.000005 -1.118860
                                CHANNELS 3 Zrotation Xrotation Yrotation
                                JOINT RightHandRing2
                                {
                                    OFFSET -4.218180 -0.000006 0.000000
                                    CHANNELS 3 Zrotation Xrotation Yrotation
                                    JOINT RightHandRing3
                                    {
                                        OFFSET -2.109090 0.000001 -0.000000
                                        CHANNELS 3 Zrotation Xrotation Yrotation
                                        End Site
                                        {
                                            OFFSET -1.872952 0.000000 0.000000
                                        }
                                    }
                                }
                            }
                            JOINT RightHandPinky1
                            {
                                OFFSET -7.716248 -0.000002 -3.375859
                                CHANNELS 3 Zrotation Xrotation Yrotation
                                JOINT RightHandPinky2
                                {
                                    OFFSET -3.374540 0.000000 0.000000
                                    CHANNELS 3 Zrotation Xrotation Yrotation
                                    JOINT RightHandPinky3
                                    {
                                        OFFSET -1.687270 0.000004 0.000001
                                        CHANNELS 3 Zrotation Xrotation Yrotation
                                        End Site
                                        {
                                            OFFSET -1.498360 0.000000 0.000000
                                        }
                                    }
                                }
                            }
                        }
                    }
                }
            }
        }
    }
    JOINT LeftUpLeg
    {
        OFFSET 8.880376 -0.000000 -0.000000
        CHANNELS 3 Zrotation Xrotation Yrotation
        JOINT LeftLeg
        {
            OFFSET -0.000001 -40.387405 -0.000001
            CHANNELS 3 Zrotation Xrotation Yrotation
            JOINT LeftFoot
            {
                OFFSET -0.000001 -36.911297 -0.000001
                CHANNELS 3 Zrotation Xrotation Yrotation
                JOINT LeftToeBase
                {
                    OFFSET -0.000002 -5.772240 13.320604
                    CHANNELS 3 Zrotation Xrotation Yrotation
                    End Site
                    {
                        OFFSET 0.000000 0.000000 3.552151
                    }
                }
            }
        }
    }
    JOINT RightUpLeg
    {
        OFFSET -8.880376 0.000000 0.000000
        CHANNELS 3 Zrotation Xrotation Yrotation
        JOINT RightLeg
        {
            OFFSET -0.000001 -40.387390 0.000000
            CHANNELS 3 Zrotation Xrotation Yrotation
            JOINT RightFoot
            {
                OFFSET 0.000002 -36.911297 -0.000001
                CHANNELS 3 Zrotation Xrotation Yrotation
                JOINT RightToeBase
                {
                    OFFSET 0.000001 -5.772238 13.320600
                    CHANNELS 3 Zrotation Xrotation Yrotation
                    End Site
                    {
                        OFFSET 0.000000 0.000000 3.552151
                    }
                }
            }
        }
    }
}
MOTION
Frames: 4
Frame Time: 0.013889
57.343857    78.747612    15.317479    -9.321194    4.934245    0.853217    1.287328    -9.275045    7.937387    -8.039288    13.958730    9.586889    -12.757670    -22.561031    -19.636898    8.448582    3.861006    -16.571415    -2.204078    5.523459    -9.600224    -13.476304    50.354103    -26.714659    -10.742867    -3.203086    -73.590179    -4.914185    45.300549    -8.321143    18.412344    47.064880    -50.964306    -27.820738    -6.739806    22.374424    -0.000000    0.000000    -0.000000    -8.420634    17.818243    -13.643420    -8.013990    -0.000000    0.000001    -8.013992    0.000000    0.000000    -1.156435    8.998209    -7.937640    -1.142208    -0.000000    0.000003    -1.142206    0.000003    -0.000003    2.322247    -8.992731    -5.366398    2.293685    -0.000007    0.000001    2.293690    0.000003    0.000002    6.022321    -17.906973    -9.601260    5.729578    -0.000007    -0.000000    5.729578    0.000003    -0.000003    -5.423164    -2.460060    16.564192    32.533485    32.940945    70.558968    -26.253380    2.007405    85.937653    -52.509491    9.450470    28.773367    -36.111069    29.531744    49.284595    14.204865    -0.989696    -23.297638    -0.000000    0.000000    -0.000000    -6.022319    17.906977    0.808745    -5.729578    0.000000    -0.000000    -5.729582    -0.000000    0.000001    -5.800511    8.954672    0.381315    -5.729571    0.000001    -0.000004    -5.729589    0.000001    0.000001    -5.800519    -8.954673    3.104718    -5.729578    0.000002    -0.000003    -5.729589    -0.000000    0.000004    -6.022319    -17.906971    6.163321    -5.729581    -0.000005    -0.000000    -5.729572    0.000000    -0.000002    10.098556    -21.575659    3.935194    -0.000000    48.866405    0.000000    6.283839    -22.243776    5.144975    0.000000    -0.597780    0.000001    13.326362    -43.203304    -1.513873    0.000000    70.469292    0.000000    2.014942    14.369018    -9.113664    -0.000000    -2.048878    -0.000001    
57.255959    78.705475    15.272100    -9.188157    5.044377    0.639549    1.316135    -9.257655    8.127627    -8.133762    13.920971    9.790066    -13.171804    -22.535439    -19.743690    8.335963    3.690347    -16.471598    -2.433993    5.432292    -9.560134    -13.523966    50.134968    -26.695076    -10.906106    -3.272278    -73.498184    -5.419563    45.092590    -7.914084    18.298185    47.203438    -50.994385    -27.683039    -6.683490    22.390511    -0.000000    0.000000    -0.000000    -8.228481    17.826439    -13.721075    -7.830882    -0.000000    0.000001    -7.830875    -0.000000    0.000001    -1.063741    8.998483    -7.961555    -1.050648    -0.000000    0.000001    -1.050648    0.000000    -0.000003    2.368594    -8.992441    -5.359153    2.339466    0.000003    -0.000003    2.339463    -0.000007    0.000005    6.022321    -17.906975    -9.601261    5.729578    0.000000    -0.000000    5.729577    -0.000000    -0.000003    -5.551382    -2.374935    16.590281    32.438980    32.999226    70.552505    -25.911955    2.192784    85.496933    -51.780735    9.543861    28.841181    -36.060726    29.548830    49.397057    14.247055    -1.007862    -23.296896    -0.000000    0.000000    -0.000000    -6.022324    17.906971    0.697150    -5.729572    -0.000001    0.000000    -5.729590    0.000002    0.000001    -5.800513    8.954671    0.325517    -5.729579    0.000001    -0.000001    -5.729579    -0.000000    -0.000000    -5.800515    -8.954672    3.131396    -5.729579    0.000001    -0.000001    -5.729576    0.000000    -0.000001    -6.022320    -17.906975    6.216675    -5.729579    0.000000    -0.000002    -5.729586    -0.000002    0.000003    10.036078    -21.675114    3.970777    -0.000000    48.901211    0.000001    6.307662    -22.272776    5.358790    -0.000000    -0.618553    -0.000000    13.008268    -43.601154    -1.342925    0.000002    70.968285    -0.000003    2.984219    14.199355    -8.217710    -0.000001    -1.546436    0.000001    
57.154339    78.656731    15.199186    -8.973240    5.228482    0.381499    1.352129    -9.263786    8.341485    -8.257460    13.926784    10.027318    -13.664760    -22.629425    -19.818335    8.211421    3.383829    -16.269566    -2.741825    5.372705    -9.543631    -13.453357    49.883186    -26.757444    -10.690443    -3.242531    -73.320557    -5.427426    45.360767    -8.001142    18.149790    47.375965    -51.011837    -27.484417    -6.602167    22.413490    -0.000000    0.000000    -0.000000    -7.995810    17.836100    -13.816856    -7.609177    -0.000003    -0.000003    -7.609176    0.000003    0.000003    -0.951512    8.998781    -7.991378    -0.939795    0.000003    -0.000003    -0.939798    -0.000003    -0.000001    2.424710    -8.992078    -5.350381    2.394890    -0.000010    0.000001    2.394895    0.000003    -0.000006    6.022317    -17.906981    -9.601262    5.729579    0.000003    -0.000001    5.729576    -0.000007    0.000002    -5.809792    -2.339522    16.606697    32.286186    33.004883    70.492188    -25.297829    2.392845    84.951973    -50.429688    9.538411    28.954512    -36.046650    29.515760    49.581848    14.279449    -1.021806    -23.296324    -0.000000    0.000000    -0.000000    -6.022324    17.906975    0.651746    -5.729585    0.000001    0.000000    -5.729578    0.000000    -0.000000    -5.800523    8.954672    0.302817    -5.729571    0.000001    -0.000001    -5.729581    0.000000    0.000000    -5.800522    -8.954674    3.186093    -5.729576    0.000002    -0.000002    -5.729583    -0.000001    0.000003    -6.022322    -17.906973    6.326063    -5.729579    -0.000002    0.000001    -5.729579    0.000000    -0.000003    9.917805    -21.886934    4.045826    -0.000001    48.980377    0.000001    6.278351    -22.231962    5.593428    -0.000001    -0.657486    -0.000001    12.273666    -44.125740    -1.249732    0.000000    71.560242    -0.000000    4.594867    13.390939    -6.945828    0.000000    -0.560094    0.000000    
57.070625    78.619652    15.146756    -8.777483    5.398639    0.196441    1.380194    -9.291456    8.487402    -8.354894    13.915787    10.190509    -14.127054    -22.664522    -19.957502    8.083048    3.146641    -16.165489    -2.990460    5.319643    -9.522251    -13.464950    49.674438    -26.731689    -10.735975    -3.292081    -73.149673    -5.486229    45.369251    -8.046969    18.035934    47.477459    -50.944759    -27.311769    -6.531390    22.433235    -0.000000    0.000000    -0.000000    -7.837488    17.842518    -13.883331    -7.458310    0.000000    0.000000    -7.458320    0.000003    0.000002    -0.875145    8.998970    -8.012304    -0.864369    -0.000000    0.000002    -0.864369    -0.000003    -0.000001    2.462889    -8.991834    -5.344411    2.432605    0.000003    -0.000001    2.432606    0.000000    0.000002    6.022324    -17.906977    -9.601258    5.729578    -0.000007    0.000002    5.729577    0.000006    -0.000007    -5.896713    -2.249054    16.623117    32.221077    33.051750    70.403290    -24.740685    2.533422    84.520790    -48.997566    9.420735    29.036575    -36.045357    29.489082    49.693844    14.302860    -1.031885    -23.295902    -0.000000    0.000000    -0.000000    -6.022331    17.906975    0.653169    -5.729572    -0.000000    0.000001    -5.729583    0.000000    0.000001    -5.800524    8.954672    0.303527    -5.729579    0.000002    -0.000002    -5.729578    -0.000000    0.000001    -5.800518    -8.954672    3.239382    -5.729573    -0.000002    -0.000004    -5.729582    -0.000000    0.000002    -6.022322    -17.906979    6.432640    -5.729583    0.000002    0.000000    -5.729583    -0.000002    0.000004    9.824151    -22.073788    4.151028    0.000001    49.031670    -0.000001    6.219116    -22.191366    5.682724    0.000000    -0.679833    0.000000    11.625233    -44.520954    -1.156341    0.000000    72.087234    -0.000001    5.563169    12.033737    -5.984500    0.000001    0.019959    -0.000001    
